<?xml version="1.0" encoding="UTF-8"?>
<!-- Generator: Adobe Illustrator 24.2.3, SVG Export Plug-In . SVG Version: 6.00 Build 0)  -->
<svg xmlns="http://www.w3.org/2000/svg" xmlns:xlink="http://www.w3.org/1999/xlink" version="1.1" id="Capa_1" x="0px" y="0px" viewBox="0 0 512.061 512.061" style="enable-background:new 0 0 512.061 512.061;" xml:space="preserve" width="512" height="512">
<g>
	<path style="fill:#8f5bde;" d="M482.223,245.226c-21.752-41.675-82.756-44.764-108.613-5.529   c-20.099,29.52-60.768,37.634-90.657,18.089c-24.298-17.58-57.948-16.134-80.268,4.048c-15.287,13.734-38.148,15.745-55.596,4.885   L22.061,188.901v25.913l113.403,70.583c25.71,16.002,59.398,13.041,81.925-7.198c14.947-13.566,37.512-14.036,53.521-2.001   c38.559,26.332,95.385,14.993,120.884-24.119c17.009-25.691,56.75-23.687,71.08,3.62c0,0,27.092,50.056,27.092,50.056   l-0.033-46.281L482.223,245.226z"/>
	<path style="fill:#a789cc;" d="M511.834,120.269c-0.024-2.038-0.576-4.075-1.671-5.8c-1.451-2.37-3.843-4.106-6.521-4.828L343.091,67.249   c-1.774-0.469-3.638-0.486-5.42-0.05l-159.635,39.022c-0.252-0.054-164.171-43.51-164.408-43.534   c-2.329-0.568-4.833-0.335-7.023,0.636c-3.289,1.445-5.757,4.568-6.362,8.113c-0.529,1.395,0.001,327.49-0.181,329.18   c0.012,0.538,0.02,1.094,0.107,1.629c0.539,4.546,4.206,8.447,8.693,9.325l166.685,36.942c1.667,0.37,3.395,0.347,5.048-0.067   l159.645-39.911l158.073,40.792c0.492,0.105,0.99,0.206,1.492,0.272c4.345,0.551,8.834-1.781,10.904-5.639   c0.882-1.617,1.333-3.452,1.352-5.292L511.834,120.269z M351.282,388.662V284.3c-7.069,2.724-14.477,4.562-22,5.472v98.823   l-140.356,35.089V293.432c-7.172,1.857-14.61,2.559-22,2.064v128.572L22.061,391.963V214.814v-25.913V87.668l144.865,38.37v147.404   c7.448,0.741,15.015-0.31,22-3.09V126.207l140.356-34.31v175.711c7.685-1.213,15.145-3.769,22-7.571V92.166l138.558,36.585   l0.122,171.275l0.004,5.727l0,0l0.085,118.719L351.282,388.662z"/>
</g>















</svg>
