<?xml version="1.0" encoding="iso-8859-1"?>
<!-- Generator: Adobe Illustrator 27.0.0, SVG Export Plug-In . SVG Version: 6.00 Build 0)  -->
<svg version="1.1" id="Capa_1" xmlns="http://www.w3.org/2000/svg" xmlns:xlink="http://www.w3.org/1999/xlink" x="0px" y="0px"
	 viewBox="0 0 512 512" style="enable-background:new 0 0 512 512;" xml:space="preserve">
<g>
	<g>
		<path style="fill:#8f5bde;" d="M504.634,317.762l-82.197-62.666c-4.832-3.683-11.732-2.752-15.417,2.079
			c-3.683,4.831-2.752,11.733,2.079,15.417l82.197,62.666c1.992,1.519,4.336,2.253,6.661,2.253c3.314,0,6.591-1.492,8.756-4.332
			C510.396,328.347,509.465,321.445,504.634,317.762z"/>
		<path style="fill:#8f5bde;" d="M258.816,255.667l-80.223,61.159c-4.831,3.684-5.762,10.586-2.079,15.417
			c2.165,2.84,5.441,4.332,8.756,4.332c2.325,0,4.67-0.734,6.661-2.253l80.223-61.16c4.831-3.683,5.762-10.585,2.079-15.417
			C270.55,252.913,263.646,251.983,258.816,255.667z"/>
		<path style="fill:#8f5bde;" d="M90.149,393.696H61c-6.075,0-11,4.925-11,11s4.925,11,11,11h29.149c6.075,0,11-4.925,11-11
			S96.225,393.696,90.149,393.696z"/>
		<path style="fill:#8f5bde;" d="M121.168,348.695H61c-6.075,0-11,4.925-11,11s4.925,11,11,11h60.168c6.075,0,11-4.925,11-11
			S127.243,348.695,121.168,348.695z"/>
		<path style="fill:#8f5bde;" d="M61,88.374h149.562c6.075,0,11-4.925,11-11s-4.925-11-11-11H61c-6.075,0-11,4.925-11,11
			S54.925,88.374,61,88.374z"/>
		<path style="fill:#8f5bde;" d="M130.562,111.375H61c-6.075,0-11,4.925-11,11s4.925,11,11,11h69.562c6.075,0,11-4.925,11-11
			S136.638,111.375,130.562,111.375z"/>
	</g>
	<path style="fill:#a789cc;" d="M482.113,139.101H271.562V57.111C271.562,25.62,245.942,0,214.451,0H57.111C25.62,0,0,25.62,0,57.111v85.526
		c0,31.491,25.62,57.111,57.111,57.111h12.33l54.603,44.564c2.002,1.634,4.468,2.478,6.957,2.478c1.602,0,3.212-0.349,4.715-1.062
		c3.837-1.821,6.283-5.689,6.283-9.938v-36.042H170v93.966H52.602C23.597,293.715,0,317.312,0,346.316v71.76
		c0,29.004,23.597,52.601,52.602,52.601h41.942l48.996,38.936c1.984,1.577,4.404,2.388,6.846,2.388c1.625,0,3.26-0.36,4.779-1.093
		c3.803-1.835,6.219-5.685,6.219-9.907v-30.324h32.166c29.004,0,52.601-23.597,52.601-52.601v-32.975H300v39.809
		c0,4.284,2.487,8.178,6.374,9.98c1.478,0.685,3.056,1.02,4.624,1.02c2.556,0,5.085-0.89,7.11-2.605l56.923-48.203h107.082
		c16.479,0,29.887-13.478,29.887-30.044V169.145C512,152.578,498.593,139.101,482.113,139.101z M490,169.145v19.646L349.899,295.6
		c-2.587,1.97-5.655,3.01-8.896,3.01c-0.01,0-0.018,0-0.027,0c-3.22,0-6.289-1.041-8.87-3.005L192,188.789v-19.645
		c0-4.436,3.538-8.044,7.887-8.044h282.227C486.462,161.101,490,164.709,490,169.145z M130.999,177.749c-6.075,0-11,4.925-11,11
		v23.866l-39.684-32.388c-1.964-1.603-4.42-2.478-6.955-2.478H57.111c-19.36,0-35.111-15.751-35.111-35.111V57.111
		C22,37.751,37.751,22,57.111,22h157.34c19.36,0,35.111,15.751,35.111,35.111v81.989h-49.676c-16.479,0-29.887,13.478-29.887,30.044
		v8.604H130.999z M224.15,418.076c0,16.873-13.728,30.601-30.601,30.601h-43.166c-6.075,0-11,4.925-11,11v18.532l-34.157-27.144
		c-1.946-1.546-4.358-2.388-6.844-2.388H52.602C35.728,448.676,22,434.949,22,418.076v-71.76c0-16.874,13.728-30.601,30.602-30.601
		H170v39.342c0,16.566,13.407,30.044,29.887,30.044h24.264V418.076z M482.113,363.101H371c-2.584-0.009-5.145,0.931-7.108,2.605
		L322,401.181v-27.08c0-6.075-4.925-11-11-11H199.887c-4.349,0-7.887-3.608-7.887-8.044V216.453l126.774,96.651
		c6.45,4.911,14.126,7.506,22.183,7.505h0.066c8.075,0,15.752-2.595,22.208-7.51L490,216.454v138.603
		C490,359.493,486.462,363.101,482.113,363.101z"/>
</g>
<g>
</g>
<g>
</g>
<g>
</g>
<g>
</g>
<g>
</g>
<g>
</g>
<g>
</g>
<g>
</g>
<g>
</g>
<g>
</g>
<g>
</g>
<g>
</g>
<g>
</g>
<g>
</g>
<g>
</g>
</svg>
